<svg xmlns="http://www.w3.org/2000/svg" width="40.27" height="32.216" viewBox="0 0 40.27 32.216">
  <g id="icons" transform="translate(-2 -4)">
    <g id="menu" transform="translate(2 4)">
      <path id="Контур_6" data-name="Контур 6" d="M38.243,10H6.027a4.027,4.027,0,0,0,0,8.054H38.243a4.027,4.027,0,0,0,0-8.054Z" transform="translate(-2 2.081)"/>
      <path id="Контур_7" data-name="Контур 7" d="M6.027,12.054H30.189a4.027,4.027,0,0,0,0-8.054H6.027a4.027,4.027,0,0,0,0,8.054Z" transform="translate(-2 -4)"/>
      <path id="Контур_8" data-name="Контур 8" d="M30.189,16H6.027a4.027,4.027,0,0,0,0,8.054H30.189a4.027,4.027,0,0,0,0-8.054Z" transform="translate(-2 8.162)"/>
    </g>
  </g>
</svg>
