<svg xmlns="http://www.w3.org/2000/svg" width="37.486" height="37.486" viewBox="0 0 37.486 37.486">
  <path id="_9004772_cross_delete_cancel_remove_icon" data-name="9004772_cross_delete_cancel_remove_icon" d="M19.743,1A18.743,18.743,0,1,0,38.486,19.743,18.743,18.743,0,0,0,19.743,1Zm8.02,24.354a1.7,1.7,0,1,1-2.409,2.409l-5.611-5.611-5.611,5.611a1.7,1.7,0,1,1-2.409-2.409l5.611-5.611-5.611-5.611a1.7,1.7,0,1,1,2.409-2.409l5.611,5.611,5.611-5.611a1.7,1.7,0,1,1,2.409,2.409l-5.611,5.611Z" transform="translate(-1 -1)" fill="#232323"/>
</svg>
